<svg width="12" height="12" viewBox="0 0 12 12" fill="none" xmlns="http://www.w3.org/2000/svg">
<path d="M1.2018 3.53042L6 5.92922L10.7982 3.53042C10.7804 3.22469 10.6465 2.93732 10.4237 2.72716C10.2009 2.517 9.90625 2.39997 9.6 2.40002H2.4C2.09375 2.39997 1.79907 2.517 1.5763 2.72716C1.35354 2.93732 1.21956 3.22469 1.2018 3.53042Z" fill="white"/>
<path d="M10.8 4.87085L6 7.27085L1.2 4.87085V8.40005C1.2 8.71831 1.32643 9.02353 1.55147 9.24858C1.77651 9.47362 2.08174 9.60005 2.4 9.60005H9.6C9.91826 9.60005 10.2235 9.47362 10.4485 9.24858C10.6736 9.02353 10.8 8.71831 10.8 8.40005V4.87085Z" fill="white"/>
</svg>
