<svg width="12" height="12" viewBox="0 0 12 12" fill="none" xmlns="http://www.w3.org/2000/svg">
<path d="M3.10031 10.5H0.923438V3.48985H3.10031V10.5ZM2.0107 2.5336C1.31461 2.5336 0.75 1.95704 0.75 1.26095C0.75 0.926588 0.882824 0.605923 1.11925 0.369496C1.35568 0.133068 1.67634 0.000244141 2.0107 0.000244141C2.34506 0.000244141 2.66573 0.133068 2.90215 0.369496C3.13858 0.605923 3.27141 0.926588 3.27141 1.26095C3.27141 1.95704 2.70656 2.5336 2.0107 2.5336ZM11.2477 10.5H9.07547V7.08751C9.07547 6.27423 9.05906 5.23126 7.94367 5.23126C6.81187 5.23126 6.63844 6.11485 6.63844 7.02892V10.5H4.46391V3.48985H6.55172V4.4461H6.58219C6.87281 3.89532 7.58273 3.31407 8.64188 3.31407C10.845 3.31407 11.25 4.76485 11.25 6.64923V10.5H11.2477Z" fill="white"/>
</svg>
