<svg width="12" height="12" viewBox="0 0 12 12" fill="none" xmlns="http://www.w3.org/2000/svg">
<path d="M10.7665 3.55588C10.7741 3.66247 10.7741 3.76909 10.7741 3.87568C10.7741 7.12693 8.2995 10.8731 3.77665 10.8731C2.38324 10.8731 1.08884 10.4696 0 9.76909C0.197977 9.79191 0.388312 9.79953 0.593906 9.79953C1.74363 9.79953 2.80202 9.41122 3.6472 8.74878C2.56598 8.72593 1.65989 8.01781 1.3477 7.04319C1.5 7.06602 1.65227 7.08125 1.81219 7.08125C2.03299 7.08125 2.25382 7.05078 2.45939 6.99751C1.33249 6.76906 0.487289 5.77923 0.487289 4.5838V4.55335C0.814687 4.73609 1.19543 4.8503 1.59895 4.86552C0.936516 4.42388 0.502523 3.67009 0.502523 2.81729C0.502523 2.36045 0.624328 1.94166 0.837539 1.57618C2.0482 3.06856 3.86801 4.04316 5.90859 4.14978C5.87053 3.96704 5.84768 3.7767 5.84768 3.58634C5.84768 2.231 6.94413 1.12695 8.30707 1.12695C9.01519 1.12695 9.65477 1.42391 10.104 1.9036C10.6598 1.79701 11.1928 1.59141 11.6649 1.3097C11.4822 1.88077 11.0939 2.36047 10.5837 2.66502C11.0786 2.61174 11.5583 2.47466 12 2.28432C11.665 2.77161 11.2462 3.2056 10.7665 3.55588Z" fill="white"/>
</svg>
