<svg width="547" height="43" viewBox="0 0 547 43" fill="none" xmlns="http://www.w3.org/2000/svg">
<circle cx="99.5" cy="23.5" r="13.5" stroke="white" stroke-opacity="0.15" stroke-width="10"/>
<circle opacity="0.6" cx="99.5" cy="23.5" r="12.5" stroke="white" stroke-width="2"/>
<path d="M0.72 9.708H25.272V13.704H0.72V9.708ZM10.62 13.2H15.408V33H10.62V13.2ZM42.6212 33V23.172C42.6212 22.188 42.4532 21.372 42.1172 20.724C41.7812 20.076 41.2412 19.584 40.4972 19.248C39.7772 18.912 38.8052 18.744 37.5812 18.744C36.4052 18.744 35.3372 18.972 34.3772 19.428C33.4172 19.86 32.6372 20.436 32.0372 21.156C31.4372 21.852 31.1012 22.596 31.0292 23.388L30.9932 21.408C31.1132 20.616 31.3892 19.824 31.8212 19.032C32.2532 18.24 32.8292 17.52 33.5492 16.872C34.2692 16.224 35.1332 15.708 36.1412 15.324C37.1732 14.916 38.3252 14.712 39.5972 14.712C40.7012 14.712 41.7212 14.856 42.6572 15.144C43.5932 15.408 44.4092 15.828 45.1052 16.404C45.8012 16.98 46.3412 17.7 46.7252 18.564C47.1092 19.404 47.3012 20.4 47.3012 21.552V33H42.6212ZM26.6012 33V7.908H31.2812V33H26.6012ZM67.8625 27.06H72.3985C72.2065 28.284 71.6905 29.376 70.8505 30.336C70.0345 31.296 68.9185 32.052 67.5025 32.604C66.0865 33.156 64.3585 33.432 62.3185 33.432C60.0385 33.432 58.0225 33.072 56.2705 32.352C54.5185 31.608 53.1505 30.54 52.1665 29.148C51.1825 27.756 50.6905 26.076 50.6905 24.108C50.6905 22.14 51.1705 20.46 52.1305 19.068C53.0905 17.652 54.4225 16.572 56.1265 15.828C57.8545 15.084 59.8705 14.712 62.1745 14.712C64.5265 14.712 66.4825 15.084 68.0425 15.828C69.6025 16.572 70.7545 17.7 71.4985 19.212C72.2665 20.7 72.5905 22.608 72.4705 24.936H55.4065C55.5265 25.848 55.8625 26.676 56.4145 27.42C56.9905 28.164 57.7585 28.752 58.7185 29.184C59.7025 29.616 60.8665 29.832 62.2105 29.832C63.6985 29.832 64.9345 29.58 65.9185 29.076C66.9265 28.548 67.5745 27.876 67.8625 27.06ZM61.9585 18.276C60.2305 18.276 58.8265 18.66 57.7465 19.428C56.6665 20.172 55.9705 21.096 55.6585 22.2H67.8265C67.7065 21 67.1305 20.052 66.0985 19.356C65.0905 18.636 63.7105 18.276 61.9585 18.276ZM140.611 25.944C140.491 27.504 139.987 28.848 139.099 29.976C138.235 31.104 137.035 31.968 135.499 32.568C133.963 33.144 132.139 33.432 130.027 33.432C127.819 33.432 125.839 33.084 124.087 32.388C122.359 31.668 120.991 30.624 119.983 29.256C118.999 27.864 118.507 26.148 118.507 24.108C118.507 22.068 118.999 20.352 119.983 18.96C120.991 17.568 122.359 16.512 124.087 15.792C125.839 15.072 127.819 14.712 130.027 14.712C132.139 14.712 133.951 15.012 135.463 15.612C136.975 16.188 138.163 17.028 139.027 18.132C139.915 19.236 140.431 20.568 140.575 22.128H136.291C135.883 20.928 135.127 19.992 134.023 19.32C132.919 18.648 131.587 18.312 130.027 18.312C128.779 18.312 127.639 18.528 126.607 18.96C125.599 19.392 124.783 20.04 124.159 20.904C123.559 21.744 123.259 22.812 123.259 24.108C123.259 25.38 123.559 26.448 124.159 27.312C124.759 28.152 125.575 28.788 126.607 29.22C127.639 29.628 128.779 29.832 130.027 29.832C131.707 29.832 133.075 29.496 134.131 28.824C135.211 28.152 135.943 27.192 136.327 25.944H140.611ZM142.791 15.108H156.687V18.744H142.791V15.108ZM147.399 10.212H152.079V33H147.399V10.212ZM169.962 33.432C167.706 33.432 165.714 33.072 163.986 32.352C162.282 31.632 160.95 30.588 159.99 29.22C159.03 27.828 158.55 26.124 158.55 24.108C158.55 22.092 159.03 20.388 159.99 18.996C160.95 17.58 162.282 16.512 163.986 15.792C165.714 15.072 167.706 14.712 169.962 14.712C172.218 14.712 174.186 15.072 175.866 15.792C177.57 16.512 178.902 17.58 179.862 18.996C180.822 20.388 181.302 22.092 181.302 24.108C181.302 26.124 180.822 27.828 179.862 29.22C178.902 30.588 177.57 31.632 175.866 32.352C174.186 33.072 172.218 33.432 169.962 33.432ZM169.962 29.832C171.21 29.832 172.326 29.616 173.31 29.184C174.318 28.728 175.11 28.08 175.686 27.24C176.262 26.376 176.55 25.332 176.55 24.108C176.55 22.884 176.262 21.84 175.686 20.976C175.11 20.088 174.33 19.416 173.346 18.96C172.362 18.504 171.234 18.276 169.962 18.276C168.714 18.276 167.586 18.504 166.578 18.96C165.57 19.416 164.766 20.076 164.166 20.94C163.59 21.804 163.302 22.86 163.302 24.108C163.302 25.332 163.59 26.376 164.166 27.24C164.742 28.08 165.534 28.728 166.542 29.184C167.55 29.616 168.69 29.832 169.962 29.832ZM197.794 33.432C196.21 33.432 194.854 33.156 193.726 32.604C192.622 32.028 191.722 31.284 191.026 30.372C190.33 29.436 189.814 28.416 189.478 27.312C189.142 26.208 188.974 25.128 188.974 24.072C188.974 22.752 189.13 21.528 189.442 20.4C189.778 19.272 190.294 18.288 190.99 17.448C191.686 16.584 192.586 15.912 193.69 15.432C194.818 14.952 196.186 14.712 197.794 14.712C199.594 14.712 201.214 15.108 202.654 15.9C204.094 16.692 205.234 17.796 206.074 19.212C206.938 20.604 207.37 22.224 207.37 24.072C207.37 25.968 206.938 27.624 206.074 29.04C205.21 30.432 204.058 31.512 202.618 32.28C201.178 33.048 199.57 33.432 197.794 33.432ZM196.282 29.796C197.554 29.796 198.658 29.556 199.594 29.076C200.554 28.596 201.286 27.936 201.79 27.096C202.318 26.232 202.582 25.224 202.582 24.072C202.582 22.344 202.03 20.952 200.926 19.896C199.846 18.84 198.298 18.312 196.282 18.312C195.01 18.312 193.846 18.54 192.79 18.996C191.758 19.452 190.942 20.112 190.342 20.976C189.742 21.816 189.442 22.848 189.442 24.072C189.442 25.224 189.718 26.232 190.27 27.096C190.822 27.936 191.614 28.596 192.646 29.076C193.678 29.556 194.89 29.796 196.282 29.796ZM184.762 15.108H189.226L189.442 19.86V40.2H184.762V15.108ZM231.512 33H226.832V15.108H231.512V33ZM227.084 24.396L227.12 25.62C227.072 25.956 226.952 26.448 226.76 27.096C226.568 27.72 226.268 28.392 225.86 29.112C225.476 29.832 224.972 30.528 224.348 31.2C223.724 31.848 222.956 32.388 222.044 32.82C221.132 33.228 220.052 33.432 218.804 33.432C217.82 33.432 216.848 33.312 215.888 33.072C214.952 32.832 214.1 32.436 213.332 31.884C212.564 31.308 211.952 30.54 211.496 29.58C211.04 28.62 210.812 27.408 210.812 25.944V15.108H215.492V25.152C215.492 26.304 215.672 27.216 216.032 27.888C216.416 28.536 216.968 28.992 217.688 29.256C218.408 29.52 219.26 29.652 220.244 29.652C221.54 29.652 222.656 29.376 223.592 28.824C224.528 28.248 225.284 27.552 225.86 26.736C226.46 25.92 226.868 25.14 227.084 24.396ZM235.053 27.06H239.373C239.637 27.876 240.177 28.548 240.993 29.076C241.833 29.58 242.925 29.832 244.269 29.832C245.181 29.832 245.889 29.748 246.393 29.58C246.897 29.412 247.245 29.172 247.437 28.86C247.629 28.524 247.725 28.152 247.725 27.744C247.725 27.24 247.569 26.856 247.257 26.592C246.945 26.304 246.465 26.076 245.817 25.908C245.169 25.74 244.341 25.584 243.333 25.44C242.325 25.272 241.353 25.068 240.417 24.828C239.481 24.588 238.653 24.276 237.933 23.892C237.213 23.484 236.637 22.98 236.205 22.38C235.797 21.756 235.593 21 235.593 20.112C235.593 19.248 235.797 18.48 236.205 17.808C236.637 17.136 237.225 16.572 237.969 16.116C238.737 15.66 239.625 15.312 240.633 15.072C241.665 14.832 242.769 14.712 243.945 14.712C245.721 14.712 247.197 14.976 248.373 15.504C249.549 16.008 250.425 16.728 251.001 17.664C251.601 18.576 251.901 19.632 251.901 20.832H247.761C247.569 19.944 247.185 19.308 246.609 18.924C246.033 18.516 245.145 18.312 243.945 18.312C242.769 18.312 241.881 18.492 241.281 18.852C240.681 19.212 240.381 19.704 240.381 20.328C240.381 20.832 240.561 21.228 240.921 21.516C241.305 21.78 241.857 21.996 242.577 22.164C243.321 22.332 244.245 22.512 245.349 22.704C246.285 22.896 247.173 23.112 248.013 23.352C248.877 23.592 249.645 23.904 250.317 24.288C250.989 24.648 251.517 25.14 251.901 25.764C252.309 26.364 252.513 27.132 252.513 28.068C252.513 29.22 252.177 30.192 251.505 30.984C250.857 31.776 249.921 32.388 248.697 32.82C247.473 33.228 246.009 33.432 244.305 33.432C242.793 33.432 241.485 33.276 240.381 32.964C239.301 32.628 238.401 32.208 237.681 31.704C236.961 31.176 236.397 30.624 235.989 30.048C235.605 29.448 235.341 28.884 235.197 28.356C235.053 27.828 235.005 27.396 235.053 27.06Z" fill="white"/>
</svg>
