<svg width="384" height="384" viewBox="0 0 384 384" fill="none" xmlns="http://www.w3.org/2000/svg">
<path d="M13.9599 121.461C23.2927 101.522 34.945 82.824 50.4813 66.4551C81.6227 33.6541 120.011 12.2593 166.633 3.85336C174.443 2.44812 182.225 1.03021 190.13 0.232666C208.247 -0.337036 226.336 0.0427856 244.315 2.46078C261.43 5.82822 278.215 10.1198 294.136 16.9814C328.461 31.7551 356.693 53.2512 378.488 81.9252C378.748 82.267 379.119 82.5582 379.311 82.9253C381.027 86.0902 384.513 89.5969 383.936 92.382C383.25 95.7495 377.719 94.0025 374.466 95.0659C365.202 98.1042 359.575 104.839 355.622 112.435C348.842 125.474 341.308 138.172 334.871 151.338C332.304 156.592 326.21 157.149 323.465 161.516C319.65 167.58 314.009 164.567 308.821 163.922C305.445 163.491 302.041 163.251 298.665 162.921C293.326 147.553 287.246 132.564 273.96 121.208C263.585 114.397 253.936 106.713 240.829 104.08C221.285 100.155 202.716 101.206 185.107 110.536C180.207 111.916 175.994 114.334 172.343 117.613C169.104 120.221 165.851 122.828 162.612 125.436C159.579 128.968 156.546 132.5 153.513 136.032C152.03 136.387 151.413 137.564 150.699 138.615C130.194 168.707 130.977 199.001 150.054 229.283C153.252 234.36 155.709 240.36 162.667 242.513L162.571 242.677C167.045 250.475 175.266 253.729 183.254 257.261C183.487 257.502 183.762 257.615 184.105 257.59C197.775 263.945 212.09 263.122 226.528 260.894C244.864 257.552 260.606 249.728 273.219 236.968C277.35 232.79 281.221 230.587 287.356 233.233C289.936 234.347 292.859 235.005 295.947 235.005C307.998 235.018 314.023 238.905 318.181 249.513C323.438 262.92 331.769 275.136 335.282 289.29C337.121 296.708 344.547 300.013 352.274 301.329C360.097 302.658 368.043 303.317 375.935 304.266C374.81 306.849 371.392 308.456 372.106 311.837L372.202 311.697C369.237 311.583 368.62 313.571 368.071 315.634L368.126 315.571C360.22 320.116 355.65 327.762 348.842 333.333L349.062 333.307C348.554 333.763 348.06 334.219 347.566 334.687C347.566 334.687 347.415 334.497 347.429 334.497C346.166 335.497 344.89 336.498 343.613 337.51C335.639 343.081 328.104 349.322 319.609 354.082C300.339 364.868 280.054 373.679 257.903 378.439C209.386 388.845 162.543 384.819 117.458 364.906C107.205 360.374 97.6805 354.765 88.0595 349.157C72.4957 340.08 60.2396 328.13 48.4638 315.445C30.759 296.379 18.3107 274.719 9.86998 250.881C-1.08232 219.902 -2.57832 188.393 3.69387 156.592C6.04079 144.704 10.4739 133.171 13.9599 121.474V121.461Z" fill="url(#paint0_linear_4_484)"/>
<defs>
<linearGradient id="paint0_linear_4_484" x1="192" y1="329.982" x2="107.686" y2="84.1053" gradientUnits="userSpaceOnUse">
<stop stop-color="#1FCF86"/>
<stop offset="1" stop-color="#D1FF00"/>
</linearGradient>
</defs>
</svg>
